    <svg
      width="346"
      height="54"
      viewBox="0 0 346 54"
      fill="none"
      xmlns="http://www.w3.org/2000/svg"
    >
      <rect x="0.845947" width="345" height="54" rx="10" fill="#1877F2" />
      <g clip-path="url(#clip0_1_460)">
        <rect
          width="24"
          height="24"
          transform="translate(15.8459 15)"
          fill="#1877F2"
        />
        <path
          d="M39.3459 27.0699C39.3459 20.7186 34.1972 15.5699 27.8459 15.5699C21.4947 15.5699 16.3459 20.7186 16.3459 27.0699C16.3459 32.8099 20.5513 37.5674 26.0491 38.4302V30.3941H23.1292V27.0699H26.0491V24.5363C26.0491 21.6541 27.7659 20.0621 30.3928 20.0621C31.651 20.0621 32.967 20.2867 32.967 20.2867V23.1168H31.5169C30.0883 23.1168 29.6428 24.0032 29.6428 24.9127V27.0699H32.8323L32.3224 30.3941H29.6428V38.4302C35.1406 37.5674 39.3459 32.8099 39.3459 27.0699Z"
          fill="white"
        />
      </g>
      <path
        d="M55.7444 25.9199C55.7444 23.4069 56.4182 21.4701 57.7659 20.1094C58.9377 18.9245 60.4286 18.332 62.2385 18.332C64.6604 18.332 66.4312 19.1263 67.551 20.7148C68.1695 21.6068 68.5015 22.502 68.5471 23.4004H65.5393C65.344 22.7103 65.0933 22.1895 64.7874 21.8379C64.2405 21.2129 63.4299 20.9004 62.3557 20.9004C61.262 20.9004 60.3993 21.3431 59.7678 22.2285C59.1363 23.1074 58.8206 24.3542 58.8206 25.9688C58.8206 27.5833 59.1526 28.7943 59.8167 29.6016C60.4872 30.4023 61.3368 30.8027 62.3655 30.8027C63.4202 30.8027 64.2242 30.4577 64.7776 29.7676C65.0836 29.3965 65.3375 28.8398 65.5393 28.0977H68.5178C68.2574 29.6667 67.5901 30.9427 66.5159 31.9258C65.4482 32.9089 64.0777 33.4004 62.4045 33.4004C60.3342 33.4004 58.7066 32.7363 57.5217 31.4082C56.3368 30.0736 55.7444 28.2441 55.7444 25.9199ZM75.3733 31.0371C76.1871 31.0371 76.8121 30.7474 77.2483 30.168C77.6845 29.5885 77.9026 28.765 77.9026 27.6973C77.9026 26.6296 77.6845 25.8092 77.2483 25.2363C76.8121 24.6569 76.1871 24.3672 75.3733 24.3672C74.5595 24.3672 73.9312 24.6569 73.4885 25.2363C73.0523 25.8092 72.8342 26.6296 72.8342 27.6973C72.8342 28.765 73.0523 29.5885 73.4885 30.168C73.9312 30.7474 74.5595 31.0371 75.3733 31.0371ZM80.8225 27.6973C80.8225 29.2598 80.3733 30.5977 79.4749 31.7109C78.5764 32.8177 77.2125 33.3711 75.3831 33.3711C73.5536 33.3711 72.1897 32.8177 71.2913 31.7109C70.3928 30.5977 69.9436 29.2598 69.9436 27.6973C69.9436 26.1608 70.3928 24.8294 71.2913 23.7031C72.1897 22.5768 73.5536 22.0137 75.3831 22.0137C77.2125 22.0137 78.5764 22.5768 79.4749 23.7031C80.3733 24.8294 80.8225 26.1608 80.8225 27.6973ZM88.7229 22.1016C89.8232 22.1016 90.7216 22.3913 91.4182 22.9707C92.1213 23.5436 92.4729 24.4974 92.4729 25.832V33H89.6213V26.5254C89.6213 25.9655 89.5465 25.5358 89.3967 25.2363C89.1233 24.6895 88.6025 24.416 87.8342 24.416C86.8902 24.416 86.2424 24.8164 85.8909 25.6172C85.7086 26.0404 85.6174 26.5807 85.6174 27.2383V33H82.844V22.375H85.5295V23.9277C85.8876 23.3809 86.2262 22.987 86.5452 22.7461C87.1181 22.3164 87.844 22.1016 88.7229 22.1016ZM93.9573 24.4355V22.4531H95.4417V19.4844H98.1956V22.4531H99.9241V24.4355H98.1956V30.0605C98.1956 30.4967 98.2509 30.7702 98.3616 30.8809C98.4722 30.985 98.8108 31.0371 99.3772 31.0371C99.4618 31.0371 99.5497 31.0371 99.6409 31.0371C99.7385 31.0306 99.8329 31.0241 99.9241 31.0176V33.0977L98.6057 33.1465C97.2906 33.1921 96.3922 32.9642 95.9104 32.4629C95.5979 32.1439 95.4417 31.6523 95.4417 30.9883V24.4355H93.9573ZM104.573 21.0859H101.75V18.5176H104.573V21.0859ZM101.75 22.3555H104.573V33H101.75V22.3555ZM113.176 22.1016C114.276 22.1016 115.175 22.3913 115.871 22.9707C116.574 23.5436 116.926 24.4974 116.926 25.832V33H114.074V26.5254C114.074 25.9655 114 25.5358 113.85 25.2363C113.576 24.6895 113.056 24.416 112.287 24.416C111.343 24.416 110.696 24.8164 110.344 25.6172C110.162 26.0404 110.071 26.5807 110.071 27.2383V33H107.297V22.375H109.983V23.9277C110.341 23.3809 110.679 22.987 110.998 22.7461C111.571 22.3164 112.297 22.1016 113.176 22.1016ZM122.278 22.3555V28.7715C122.278 29.377 122.349 29.8327 122.492 30.1387C122.746 30.679 123.244 30.9492 123.987 30.9492C124.937 30.9492 125.588 30.5651 125.94 29.7969C126.122 29.3802 126.213 28.8301 126.213 28.1465V22.3555H129.035V33H126.33V31.4961C126.304 31.5286 126.239 31.6263 126.135 31.7891C126.031 31.9518 125.907 32.0951 125.764 32.2188C125.328 32.6094 124.905 32.8763 124.494 33.0195C124.091 33.1628 123.615 33.2344 123.069 33.2344C121.493 33.2344 120.432 32.668 119.885 31.5352C119.579 30.9102 119.426 29.9889 119.426 28.7715V22.3555H122.278ZM135.93 24.3672C135.285 24.3672 134.784 24.569 134.426 24.9727C134.074 25.3763 133.853 25.9232 133.762 26.6133H138.088C138.043 25.8776 137.818 25.321 137.414 24.9434C137.017 24.5592 136.522 24.3672 135.93 24.3672ZM135.93 22.0723C136.815 22.0723 137.613 22.2383 138.323 22.5703C139.032 22.9023 139.618 23.4264 140.08 24.1426C140.497 24.7741 140.767 25.5065 140.891 26.3398C140.962 26.8281 140.992 27.5312 140.979 28.4492H133.694C133.733 29.5169 134.068 30.2656 134.699 30.6953C135.084 30.9622 135.546 31.0957 136.086 31.0957C136.659 31.0957 137.125 30.9329 137.483 30.6074C137.678 30.4316 137.851 30.1875 138 29.875H140.842C140.77 30.5065 140.442 31.1478 139.856 31.7988C138.944 32.834 137.668 33.3516 136.028 33.3516C134.673 33.3516 133.479 32.9154 132.444 32.043C131.408 31.1706 130.891 29.7513 130.891 27.7852C130.891 25.9427 131.356 24.5299 132.287 23.5469C133.225 22.5638 134.439 22.0723 135.93 22.0723ZM153.449 22.3555H156.272L157.893 30.0215L159.553 22.3555H162.453L159.367 33H156.506L154.836 25.2461L153.147 33H150.256L147.268 22.3555H150.256L151.916 29.9922L153.449 22.3555ZM166.858 21.0859H164.035V18.5176H166.858V21.0859ZM164.035 22.3555H166.858V33H164.035V22.3555ZM168.469 24.4355V22.4531H169.953V19.4844H172.707V22.4531H174.436V24.4355H172.707V30.0605C172.707 30.4967 172.763 30.7702 172.873 30.8809C172.984 30.985 173.323 31.0371 173.889 31.0371C173.974 31.0371 174.061 31.0371 174.153 31.0371C174.25 31.0306 174.345 31.0241 174.436 31.0176V33.0977L173.117 33.1465C171.802 33.1921 170.904 32.9642 170.422 32.4629C170.11 32.1439 169.953 31.6523 169.953 30.9883V24.4355H168.469ZM182.092 22.082C182.75 22.082 183.345 22.196 183.879 22.4238C184.42 22.6517 184.862 23 185.207 23.4688C185.5 23.8659 185.679 24.276 185.744 24.6992C185.809 25.1159 185.842 25.7995 185.842 26.75V33H183V26.5254C183 25.9525 182.903 25.4902 182.707 25.1387C182.453 24.6439 181.972 24.3965 181.262 24.3965C180.526 24.3965 179.966 24.6439 179.582 25.1387C179.205 25.627 179.016 26.3268 179.016 27.2383V33H176.242V18.6543H179.016V23.7422C179.42 23.1237 179.885 22.694 180.412 22.4531C180.946 22.2057 181.506 22.082 182.092 22.082ZM194.24 18.625H204.446V21.1543H197.229V24.4648H203.547V26.9648H197.229V33H194.24V18.625ZM212.112 27.8242C211.936 27.9349 211.757 28.026 211.574 28.0977C211.399 28.1628 211.155 28.2246 210.842 28.2832L210.217 28.4004C209.631 28.5046 209.211 28.6315 208.957 28.7812C208.528 29.0352 208.313 29.429 208.313 29.9629C208.313 30.4382 208.443 30.7832 208.703 30.998C208.97 31.2064 209.293 31.3105 209.67 31.3105C210.269 31.3105 210.819 31.1348 211.321 30.7832C211.828 30.4316 212.092 29.7904 212.112 28.8594V27.8242ZM210.422 26.5254C210.936 26.4603 211.304 26.3789 211.526 26.2812C211.923 26.112 212.121 25.8483 212.121 25.4902C212.121 25.054 211.968 24.7546 211.662 24.5918C211.363 24.4225 210.92 24.3379 210.334 24.3379C209.677 24.3379 209.211 24.5007 208.938 24.8262C208.742 25.0671 208.612 25.3926 208.547 25.8027H205.862C205.92 24.8717 206.181 24.1068 206.643 23.5078C207.378 22.5703 208.642 22.1016 210.432 22.1016C211.597 22.1016 212.632 22.3327 213.537 22.7949C214.442 23.2572 214.895 24.1296 214.895 25.4121V30.2949C214.895 30.6335 214.901 31.0436 214.914 31.5254C214.934 31.89 214.989 32.1374 215.08 32.2676C215.171 32.3978 215.308 32.5052 215.49 32.5898V33H212.463C212.378 32.7852 212.32 32.5833 212.287 32.3945C212.255 32.2057 212.229 31.9909 212.209 31.75C211.825 32.1667 211.382 32.5215 210.881 32.8145C210.282 33.1595 209.605 33.332 208.85 33.332C207.886 33.332 207.089 33.0586 206.457 32.5117C205.832 31.9583 205.52 31.1771 205.52 30.168C205.52 28.8594 206.024 27.9121 207.033 27.3262C207.587 27.0072 208.401 26.7793 209.475 26.6426L210.422 26.5254ZM223.733 26.1738C223.681 25.7767 223.547 25.4186 223.332 25.0996C223.02 24.6699 222.535 24.4551 221.877 24.4551C220.94 24.4551 220.298 24.9206 219.953 25.8516C219.771 26.3464 219.68 27.0039 219.68 27.8242C219.68 28.6055 219.771 29.2337 219.953 29.709C220.285 30.5944 220.91 31.0371 221.828 31.0371C222.479 31.0371 222.942 30.8613 223.215 30.5098C223.489 30.1582 223.655 29.7025 223.713 29.1426H226.555C226.49 29.9889 226.184 30.7897 225.637 31.5449C224.765 32.7624 223.472 33.3711 221.76 33.3711C220.048 33.3711 218.788 32.8633 217.981 31.8477C217.173 30.832 216.77 29.5137 216.77 27.8926C216.77 26.0632 217.216 24.6406 218.108 23.625C219 22.6094 220.23 22.1016 221.799 22.1016C223.134 22.1016 224.224 22.401 225.071 23C225.923 23.599 226.428 24.6569 226.584 26.1738H223.733ZM232.707 24.3672C232.063 24.3672 231.561 24.569 231.203 24.9727C230.852 25.3763 230.63 25.9232 230.539 26.6133H234.865C234.82 25.8776 234.595 25.321 234.192 24.9434C233.795 24.5592 233.3 24.3672 232.707 24.3672ZM232.707 22.0723C233.593 22.0723 234.39 22.2383 235.1 22.5703C235.809 22.9023 236.395 23.4264 236.858 24.1426C237.274 24.7741 237.545 25.5065 237.668 26.3398C237.74 26.8281 237.769 27.5312 237.756 28.4492H230.471C230.51 29.5169 230.845 30.2656 231.477 30.6953C231.861 30.9622 232.323 31.0957 232.864 31.0957C233.436 31.0957 233.902 30.9329 234.26 30.6074C234.455 30.4316 234.628 30.1875 234.778 29.875H237.619C237.548 30.5065 237.219 31.1478 236.633 31.7988C235.722 32.834 234.446 33.3516 232.805 33.3516C231.451 33.3516 230.256 32.9154 229.221 32.043C228.186 31.1706 227.668 29.7513 227.668 27.7852C227.668 25.9427 228.134 24.5299 229.065 23.5469C230.002 22.5638 231.216 22.0723 232.707 22.0723ZM245.393 22.1211C246.793 22.1211 247.886 22.6257 248.674 23.6348C249.468 24.6439 249.865 25.946 249.865 27.541C249.865 29.1947 249.475 30.5651 248.694 31.6523C247.912 32.7396 246.822 33.2832 245.422 33.2832C244.543 33.2832 243.837 33.1074 243.303 32.7559C242.984 32.5475 242.639 32.1829 242.268 31.6621V33H239.543V18.625H242.317V23.7422C242.668 23.2474 243.056 22.8698 243.479 22.6094C243.98 22.2839 244.618 22.1211 245.393 22.1211ZM244.68 30.9883C245.396 30.9883 245.953 30.6986 246.35 30.1191C246.747 29.5397 246.946 28.778 246.946 27.834C246.946 27.0788 246.848 26.4538 246.653 25.959C246.281 25.0215 245.598 24.5527 244.602 24.5527C243.593 24.5527 242.899 25.0117 242.522 25.9297C242.326 26.418 242.229 27.0495 242.229 27.8242C242.229 28.7357 242.431 29.4909 242.834 30.0898C243.238 30.6888 243.853 30.9883 244.68 30.9883ZM256.643 31.0371C257.457 31.0371 258.082 30.7474 258.518 30.168C258.954 29.5885 259.172 28.765 259.172 27.6973C259.172 26.6296 258.954 25.8092 258.518 25.2363C258.082 24.6569 257.457 24.3672 256.643 24.3672C255.829 24.3672 255.201 24.6569 254.758 25.2363C254.322 25.8092 254.104 26.6296 254.104 27.6973C254.104 28.765 254.322 29.5885 254.758 30.168C255.201 30.7474 255.829 31.0371 256.643 31.0371ZM262.092 27.6973C262.092 29.2598 261.643 30.5977 260.744 31.7109C259.846 32.8177 258.482 33.3711 256.653 33.3711C254.823 33.3711 253.459 32.8177 252.561 31.7109C251.662 30.5977 251.213 29.2598 251.213 27.6973C251.213 26.1608 251.662 24.8294 252.561 23.7031C253.459 22.5768 254.823 22.0137 256.653 22.0137C258.482 22.0137 259.846 22.5768 260.744 23.7031C261.643 24.8294 262.092 26.1608 262.092 27.6973ZM268.869 31.0371C269.683 31.0371 270.308 30.7474 270.744 30.168C271.181 29.5885 271.399 28.765 271.399 27.6973C271.399 26.6296 271.181 25.8092 270.744 25.2363C270.308 24.6569 269.683 24.3672 268.869 24.3672C268.056 24.3672 267.427 24.6569 266.985 25.2363C266.548 25.8092 266.33 26.6296 266.33 27.6973C266.33 28.765 266.548 29.5885 266.985 30.168C267.427 30.7474 268.056 31.0371 268.869 31.0371ZM274.319 27.6973C274.319 29.2598 273.869 30.5977 272.971 31.7109C272.073 32.8177 270.709 33.3711 268.879 33.3711C267.05 33.3711 265.686 32.8177 264.787 31.7109C263.889 30.5977 263.44 29.2598 263.44 27.6973C263.44 26.1608 263.889 24.8294 264.787 23.7031C265.686 22.5768 267.05 22.0137 268.879 22.0137C270.709 22.0137 272.073 22.5768 272.971 23.7031C273.869 24.8294 274.319 26.1608 274.319 27.6973ZM276.291 18.6543H279.026V26.4082L282.492 22.4043H285.94L282.219 26.4766L286.086 33H282.727L280.178 28.4492L279.026 29.6504V33H276.291V18.6543Z"
        fill="white"
      />
      <defs>
        <clipPath id="clip0_1_460">
          <rect
            width="24"
            height="24"
            fill="white"
            transform="translate(15.8459 15)"
          />
        </clipPath>
      </defs>
    </svg>
