    <svg width="346" height="55" viewBox="0 0 346 55" fill="none" xmlns="http://www.w3.org/2000/svg">
<rect x="0.845947" y="0.537109" width="345" height="54" rx="10" fill="#1877F2"/>
<rect x="23.3459" y="0.537109" width="301" height="54" rx="10" fill="#1877F2"/>
<g clip-path="url(#clip0_1_463)">
<rect width="24" height="24" transform="translate(38.3459 15.5371)" fill="#1877F2"/>
<path d="M61.8459 27.607C61.8459 21.2557 56.6972 16.107 50.3459 16.107C43.9947 16.107 38.8459 21.2557 38.8459 27.607C38.8459 33.347 43.0513 38.1046 48.5491 38.9673V30.9312H45.6292V27.607H48.5491V25.0734C48.5491 22.1912 50.2659 20.5992 52.8928 20.5992C54.151 20.5992 55.467 20.8238 55.467 20.8238V23.6539H54.0169C52.5883 23.6539 52.1428 24.5403 52.1428 25.4498V27.607H55.3323L54.8224 30.9312H52.1428V38.9673C57.6406 38.1046 61.8459 33.347 61.8459 27.607Z" fill="white"/>
</g>
<path d="M78.2444 26.457C78.2444 23.944 78.9182 22.0072 80.2659 20.6465C81.4377 19.4616 82.9286 18.8691 84.7385 18.8691C87.1604 18.8691 88.9312 19.6634 90.051 21.252C90.6695 22.1439 91.0015 23.0391 91.0471 23.9375H88.0393C87.844 23.2474 87.5933 22.7266 87.2874 22.375C86.7405 21.75 85.9299 21.4375 84.8557 21.4375C83.762 21.4375 82.8993 21.8802 82.2678 22.7656C81.6363 23.6445 81.3206 24.8913 81.3206 26.5059C81.3206 28.1204 81.6526 29.3314 82.3167 30.1387C82.9872 30.9395 83.8368 31.3398 84.8655 31.3398C85.9202 31.3398 86.7242 30.9948 87.2776 30.3047C87.5836 29.9336 87.8375 29.377 88.0393 28.6348H91.0178C90.7574 30.2038 90.0901 31.4798 89.0159 32.4629C87.9482 33.446 86.5777 33.9375 84.9045 33.9375C82.8342 33.9375 81.2066 33.2734 80.0217 31.9453C78.8368 30.6107 78.2444 28.7812 78.2444 26.457ZM97.8733 31.5742C98.6871 31.5742 99.3121 31.2845 99.7483 30.7051C100.184 30.1257 100.403 29.3021 100.403 28.2344C100.403 27.1667 100.184 26.3464 99.7483 25.7734C99.3121 25.194 98.6871 24.9043 97.8733 24.9043C97.0595 24.9043 96.4312 25.194 95.9885 25.7734C95.5523 26.3464 95.3342 27.1667 95.3342 28.2344C95.3342 29.3021 95.5523 30.1257 95.9885 30.7051C96.4312 31.2845 97.0595 31.5742 97.8733 31.5742ZM103.323 28.2344C103.323 29.7969 102.873 31.1348 101.975 32.248C101.076 33.3548 99.7125 33.9082 97.8831 33.9082C96.0536 33.9082 94.6897 33.3548 93.7913 32.248C92.8928 31.1348 92.4436 29.7969 92.4436 28.2344C92.4436 26.6979 92.8928 25.3665 93.7913 24.2402C94.6897 23.1139 96.0536 22.5508 97.8831 22.5508C99.7125 22.5508 101.076 23.1139 101.975 24.2402C102.873 25.3665 103.323 26.6979 103.323 28.2344ZM111.223 22.6387C112.323 22.6387 113.222 22.9284 113.918 23.5078C114.621 24.0807 114.973 25.0345 114.973 26.3691V33.5371H112.121V27.0625C112.121 26.5026 112.046 26.0729 111.897 25.7734C111.623 25.2266 111.102 24.9531 110.334 24.9531C109.39 24.9531 108.742 25.3535 108.391 26.1543C108.209 26.5775 108.117 27.1178 108.117 27.7754V33.5371H105.344V22.9121H108.03V24.4648C108.388 23.918 108.726 23.5241 109.045 23.2832C109.618 22.8535 110.344 22.6387 111.223 22.6387ZM116.457 24.9727V22.9902H117.942V20.0215H120.696V22.9902H122.424V24.9727H120.696V30.5977C120.696 31.0339 120.751 31.3073 120.862 31.418C120.972 31.5221 121.311 31.5742 121.877 31.5742C121.962 31.5742 122.05 31.5742 122.141 31.5742C122.239 31.5677 122.333 31.5612 122.424 31.5547V33.6348L121.106 33.6836C119.791 33.7292 118.892 33.5013 118.41 33C118.098 32.681 117.942 32.1895 117.942 31.5254V24.9727H116.457ZM127.073 21.623H124.25V19.0547H127.073V21.623ZM124.25 22.8926H127.073V33.5371H124.25V22.8926ZM135.676 22.6387C136.776 22.6387 137.675 22.9284 138.371 23.5078C139.074 24.0807 139.426 25.0345 139.426 26.3691V33.5371H136.574V27.0625C136.574 26.5026 136.5 26.0729 136.35 25.7734C136.076 25.2266 135.556 24.9531 134.787 24.9531C133.843 24.9531 133.196 25.3535 132.844 26.1543C132.662 26.5775 132.571 27.1178 132.571 27.7754V33.5371H129.797V22.9121H132.483V24.4648C132.841 23.918 133.179 23.5241 133.498 23.2832C134.071 22.8535 134.797 22.6387 135.676 22.6387ZM144.778 22.8926V29.3086C144.778 29.9141 144.849 30.3698 144.992 30.6758C145.246 31.2161 145.744 31.4863 146.487 31.4863C147.437 31.4863 148.088 31.1022 148.44 30.334C148.622 29.9173 148.713 29.3672 148.713 28.6836V22.8926H151.535V33.5371H148.83V32.0332C148.804 32.0658 148.739 32.1634 148.635 32.3262C148.531 32.4889 148.407 32.6322 148.264 32.7559C147.828 33.1465 147.405 33.4134 146.994 33.5566C146.591 33.6999 146.115 33.7715 145.569 33.7715C143.993 33.7715 142.932 33.2051 142.385 32.0723C142.079 31.4473 141.926 30.526 141.926 29.3086V22.8926H144.778ZM158.43 24.9043C157.785 24.9043 157.284 25.1061 156.926 25.5098C156.574 25.9134 156.353 26.4603 156.262 27.1504H160.588C160.543 26.4147 160.318 25.8581 159.914 25.4805C159.517 25.0964 159.022 24.9043 158.43 24.9043ZM158.43 22.6094C159.315 22.6094 160.113 22.7754 160.823 23.1074C161.532 23.4395 162.118 23.9635 162.58 24.6797C162.997 25.3112 163.267 26.0436 163.391 26.877C163.462 27.3652 163.492 28.0684 163.479 28.9863H156.194C156.233 30.054 156.568 30.8027 157.199 31.2324C157.584 31.4993 158.046 31.6328 158.586 31.6328C159.159 31.6328 159.625 31.4701 159.983 31.1445C160.178 30.9688 160.351 30.7246 160.5 30.4121H163.342C163.27 31.0436 162.942 31.6849 162.356 32.3359C161.444 33.3711 160.168 33.8887 158.528 33.8887C157.173 33.8887 155.979 33.4525 154.944 32.5801C153.908 31.7077 153.391 30.2884 153.391 28.3223C153.391 26.4798 153.856 25.0671 154.787 24.084C155.725 23.1009 156.939 22.6094 158.43 22.6094ZM175.949 22.8926H178.772L180.393 30.5586L182.053 22.8926H184.953L181.867 33.5371H179.006L177.336 25.7832L175.647 33.5371H172.756L169.768 22.8926H172.756L174.416 30.5293L175.949 22.8926ZM189.358 21.623H186.535V19.0547H189.358V21.623ZM186.535 22.8926H189.358V33.5371H186.535V22.8926ZM190.969 24.9727V22.9902H192.453V20.0215H195.207V22.9902H196.936V24.9727H195.207V30.5977C195.207 31.0339 195.263 31.3073 195.373 31.418C195.484 31.5221 195.823 31.5742 196.389 31.5742C196.474 31.5742 196.561 31.5742 196.653 31.5742C196.75 31.5677 196.845 31.5612 196.936 31.5547V33.6348L195.617 33.6836C194.302 33.7292 193.404 33.5013 192.922 33C192.61 32.681 192.453 32.1895 192.453 31.5254V24.9727H190.969ZM204.592 22.6191C205.25 22.6191 205.845 22.7331 206.379 22.9609C206.92 23.1888 207.362 23.5371 207.707 24.0059C208 24.403 208.179 24.8132 208.244 25.2363C208.309 25.653 208.342 26.3366 208.342 27.2871V33.5371H205.5V27.0625C205.5 26.4896 205.403 26.0273 205.207 25.6758C204.953 25.181 204.472 24.9336 203.762 24.9336C203.026 24.9336 202.466 25.181 202.082 25.6758C201.705 26.1641 201.516 26.8639 201.516 27.7754V33.5371H198.742V19.1914H201.516V24.2793C201.92 23.6608 202.385 23.2311 202.912 22.9902C203.446 22.7428 204.006 22.6191 204.592 22.6191ZM216.74 19.1621H226.946V21.6914H219.729V25.002H226.047V27.502H219.729V33.5371H216.74V19.1621ZM234.612 28.3613C234.436 28.472 234.257 28.5632 234.074 28.6348C233.899 28.6999 233.655 28.7617 233.342 28.8203L232.717 28.9375C232.131 29.0417 231.711 29.1686 231.457 29.3184C231.028 29.5723 230.813 29.9661 230.813 30.5C230.813 30.9753 230.943 31.3203 231.203 31.5352C231.47 31.7435 231.793 31.8477 232.17 31.8477C232.769 31.8477 233.319 31.6719 233.821 31.3203C234.328 30.9688 234.592 30.3275 234.612 29.3965V28.3613ZM232.922 27.0625C233.436 26.9974 233.804 26.916 234.026 26.8184C234.423 26.6491 234.621 26.3854 234.621 26.0273C234.621 25.5911 234.468 25.2917 234.162 25.1289C233.863 24.9596 233.42 24.875 232.834 24.875C232.177 24.875 231.711 25.0378 231.438 25.3633C231.242 25.6042 231.112 25.9297 231.047 26.3398H228.362C228.42 25.4089 228.681 24.6439 229.143 24.0449C229.878 23.1074 231.142 22.6387 232.932 22.6387C234.097 22.6387 235.132 22.8698 236.037 23.332C236.942 23.7943 237.395 24.6667 237.395 25.9492V30.832C237.395 31.1706 237.401 31.5807 237.414 32.0625C237.434 32.4271 237.489 32.6745 237.58 32.8047C237.671 32.9349 237.808 33.0423 237.99 33.127V33.5371H234.963C234.878 33.3223 234.82 33.1204 234.787 32.9316C234.755 32.7428 234.729 32.528 234.709 32.2871C234.325 32.7038 233.882 33.0586 233.381 33.3516C232.782 33.6966 232.105 33.8691 231.35 33.8691C230.386 33.8691 229.589 33.5957 228.957 33.0488C228.332 32.4954 228.02 31.7142 228.02 30.7051C228.02 29.3965 228.524 28.4492 229.533 27.8633C230.087 27.5443 230.901 27.3164 231.975 27.1797L232.922 27.0625ZM246.233 26.7109C246.181 26.3138 246.047 25.9557 245.832 25.6367C245.52 25.207 245.035 24.9922 244.377 24.9922C243.44 24.9922 242.798 25.4577 242.453 26.3887C242.271 26.8835 242.18 27.541 242.18 28.3613C242.18 29.1426 242.271 29.7708 242.453 30.2461C242.785 31.1315 243.41 31.5742 244.328 31.5742C244.979 31.5742 245.442 31.3984 245.715 31.0469C245.989 30.6953 246.155 30.2396 246.213 29.6797H249.055C248.99 30.526 248.684 31.3268 248.137 32.082C247.265 33.2995 245.972 33.9082 244.26 33.9082C242.548 33.9082 241.288 33.4004 240.481 32.3848C239.673 31.3691 239.27 30.0508 239.27 28.4297C239.27 26.6003 239.716 25.1777 240.608 24.1621C241.5 23.1465 242.73 22.6387 244.299 22.6387C245.634 22.6387 246.724 22.9382 247.571 23.5371C248.423 24.1361 248.928 25.194 249.084 26.7109H246.233ZM255.207 24.9043C254.563 24.9043 254.061 25.1061 253.703 25.5098C253.352 25.9134 253.13 26.4603 253.039 27.1504H257.365C257.32 26.4147 257.095 25.8581 256.692 25.4805C256.295 25.0964 255.8 24.9043 255.207 24.9043ZM255.207 22.6094C256.093 22.6094 256.89 22.7754 257.6 23.1074C258.309 23.4395 258.895 23.9635 259.358 24.6797C259.774 25.3112 260.045 26.0436 260.168 26.877C260.24 27.3652 260.269 28.0684 260.256 28.9863H252.971C253.01 30.054 253.345 30.8027 253.977 31.2324C254.361 31.4993 254.823 31.6328 255.364 31.6328C255.936 31.6328 256.402 31.4701 256.76 31.1445C256.955 30.9688 257.128 30.7246 257.278 30.4121H260.119C260.048 31.0436 259.719 31.6849 259.133 32.3359C258.222 33.3711 256.946 33.8887 255.305 33.8887C253.951 33.8887 252.756 33.4525 251.721 32.5801C250.686 31.7077 250.168 30.2884 250.168 28.3223C250.168 26.4798 250.634 25.0671 251.565 24.084C252.502 23.1009 253.716 22.6094 255.207 22.6094ZM267.893 22.6582C269.293 22.6582 270.386 23.1628 271.174 24.1719C271.968 25.181 272.365 26.4831 272.365 28.0781C272.365 29.7318 271.975 31.1022 271.194 32.1895C270.412 33.2767 269.322 33.8203 267.922 33.8203C267.043 33.8203 266.337 33.6445 265.803 33.293C265.484 33.0846 265.139 32.7201 264.768 32.1992V33.5371H262.043V19.1621H264.817V24.2793C265.168 23.7845 265.556 23.4069 265.979 23.1465C266.48 22.821 267.118 22.6582 267.893 22.6582ZM267.18 31.5254C267.896 31.5254 268.453 31.2357 268.85 30.6562C269.247 30.0768 269.446 29.3151 269.446 28.3711C269.446 27.6159 269.348 26.9909 269.153 26.4961C268.781 25.5586 268.098 25.0898 267.102 25.0898C266.093 25.0898 265.399 25.5488 265.022 26.4668C264.826 26.9551 264.729 27.5866 264.729 28.3613C264.729 29.2728 264.931 30.028 265.334 30.627C265.738 31.2259 266.353 31.5254 267.18 31.5254ZM279.143 31.5742C279.957 31.5742 280.582 31.2845 281.018 30.7051C281.454 30.1257 281.672 29.3021 281.672 28.2344C281.672 27.1667 281.454 26.3464 281.018 25.7734C280.582 25.194 279.957 24.9043 279.143 24.9043C278.329 24.9043 277.701 25.194 277.258 25.7734C276.822 26.3464 276.604 27.1667 276.604 28.2344C276.604 29.3021 276.822 30.1257 277.258 30.7051C277.701 31.2845 278.329 31.5742 279.143 31.5742ZM284.592 28.2344C284.592 29.7969 284.143 31.1348 283.244 32.248C282.346 33.3548 280.982 33.9082 279.153 33.9082C277.323 33.9082 275.959 33.3548 275.061 32.248C274.162 31.1348 273.713 29.7969 273.713 28.2344C273.713 26.6979 274.162 25.3665 275.061 24.2402C275.959 23.1139 277.323 22.5508 279.153 22.5508C280.982 22.5508 282.346 23.1139 283.244 24.2402C284.143 25.3665 284.592 26.6979 284.592 28.2344ZM291.369 31.5742C292.183 31.5742 292.808 31.2845 293.244 30.7051C293.681 30.1257 293.899 29.3021 293.899 28.2344C293.899 27.1667 293.681 26.3464 293.244 25.7734C292.808 25.194 292.183 24.9043 291.369 24.9043C290.556 24.9043 289.927 25.194 289.485 25.7734C289.048 26.3464 288.83 27.1667 288.83 28.2344C288.83 29.3021 289.048 30.1257 289.485 30.7051C289.927 31.2845 290.556 31.5742 291.369 31.5742ZM296.819 28.2344C296.819 29.7969 296.369 31.1348 295.471 32.248C294.573 33.3548 293.209 33.9082 291.379 33.9082C289.55 33.9082 288.186 33.3548 287.287 32.248C286.389 31.1348 285.94 29.7969 285.94 28.2344C285.94 26.6979 286.389 25.3665 287.287 24.2402C288.186 23.1139 289.55 22.5508 291.379 22.5508C293.209 22.5508 294.573 23.1139 295.471 24.2402C296.369 25.3665 296.819 26.6979 296.819 28.2344ZM298.791 19.1914H301.526V26.9453L304.992 22.9414H308.44L304.719 27.0137L308.586 33.5371H305.227L302.678 28.9863L301.526 30.1875V33.5371H298.791V19.1914Z" fill="white"/>
<defs>
<clipPath id="clip0_1_463">
<rect width="24" height="24" fill="white" transform="translate(38.3459 15.5371)"/>
</clipPath>
</defs>
</svg>
