<svg width="346" height="55" viewBox="0 0 346 55" fill="none" xmlns="http://www.w3.org/2000/svg">
<rect x="0.5" y="0.537109" width="345" height="54" rx="10" fill="#1877F2"/>
<rect x="28.5" y="0.537109" width="290" height="54" rx="10" fill="#1877F2"/>
<rect width="24" height="24" transform="translate(43.5 15.5371)" fill="#1877F2"/>
<path d="M67 27.607C67 21.2557 61.8513 16.107 55.5 16.107C49.1487 16.107 44 21.2557 44 27.607C44 33.347 48.2054 38.1046 53.7031 38.9673V30.9312H50.7832V27.607H53.7031V25.0734C53.7031 22.1912 55.42 20.5992 58.0468 20.5992C59.305 20.5992 60.6211 20.8238 60.6211 20.8238V23.6539H59.171C57.7424 23.6539 57.2969 24.5403 57.2969 25.4498V27.607H60.4863L59.9765 30.9312H57.2969V38.9673C62.7946 38.1046 67 33.347 67 27.607Z" fill="white"/>
<path d="M86.2012 29.0938C86.2923 29.7513 86.4714 30.2428 86.7383 30.5684C87.2266 31.1608 88.0632 31.457 89.248 31.457C89.9577 31.457 90.5339 31.3789 90.9766 31.2227C91.8164 30.9232 92.2363 30.3665 92.2363 29.5527C92.2363 29.0775 92.028 28.7096 91.6113 28.4492C91.1947 28.1953 90.5404 27.9707 89.6484 27.7754L88.125 27.4336C86.6276 27.0951 85.5924 26.7272 85.0195 26.3301C84.0495 25.666 83.5645 24.6276 83.5645 23.2148C83.5645 21.9258 84.0332 20.8548 84.9707 20.002C85.9082 19.1491 87.2852 18.7227 89.1016 18.7227C90.6185 18.7227 91.9108 19.1263 92.9785 19.9336C94.0527 20.7344 94.6159 21.8997 94.668 23.4297H91.7773C91.7253 22.5638 91.3477 21.9486 90.6445 21.584C90.1758 21.3431 89.5931 21.2227 88.8965 21.2227C88.1217 21.2227 87.5033 21.3789 87.041 21.6914C86.5788 22.0039 86.3477 22.4401 86.3477 23C86.3477 23.5143 86.5755 23.8984 87.0312 24.1523C87.3242 24.3216 87.9492 24.5202 88.9062 24.748L91.3867 25.3438C92.474 25.6042 93.2943 25.9525 93.8477 26.3887C94.707 27.0658 95.1367 28.0456 95.1367 29.3281C95.1367 30.6432 94.6322 31.737 93.623 32.6094C92.6204 33.4753 91.2012 33.9082 89.3652 33.9082C87.4902 33.9082 86.0156 33.4818 84.9414 32.6289C83.8672 31.7695 83.3301 30.5911 83.3301 29.0938H86.2012ZM100 21.623H97.1777V19.0547H100V21.623ZM97.1777 22.8926H100V33.5371H97.1777V22.8926ZM107.275 31.252C107.926 31.252 108.477 31.0078 108.926 30.5195C109.375 30.0247 109.6 29.2402 109.6 28.166C109.6 27.1569 109.385 26.3887 108.955 25.8613C108.532 25.334 107.962 25.0703 107.246 25.0703C106.27 25.0703 105.596 25.5293 105.225 26.4473C105.029 26.9355 104.932 27.5378 104.932 28.2539C104.932 28.8724 105.036 29.4225 105.244 29.9043C105.622 30.8027 106.299 31.252 107.275 31.252ZM106.582 22.6387C107.116 22.6387 107.581 22.7201 107.979 22.8828C108.656 23.1628 109.202 23.6771 109.619 24.4258V22.8926H112.324V32.9902C112.324 34.3639 112.093 35.3991 111.631 36.0957C110.837 37.2936 109.313 37.8926 107.061 37.8926C105.7 37.8926 104.59 37.6257 103.73 37.0918C102.871 36.5579 102.396 35.7604 102.305 34.6992H105.332C105.41 35.0247 105.537 35.2591 105.713 35.4023C106.012 35.6562 106.517 35.7832 107.227 35.7832C108.229 35.7832 108.9 35.4479 109.238 34.7773C109.46 34.3477 109.57 33.625 109.57 32.6094V31.9258C109.303 32.3815 109.017 32.7233 108.711 32.9512C108.158 33.3743 107.438 33.5859 106.553 33.5859C105.186 33.5859 104.092 33.1074 103.271 32.1504C102.458 31.1868 102.051 29.8848 102.051 28.2441C102.051 26.6621 102.445 25.334 103.232 24.2598C104.02 23.179 105.137 22.6387 106.582 22.6387ZM120.83 22.6387C121.93 22.6387 122.829 22.9284 123.525 23.5078C124.229 24.0807 124.58 25.0345 124.58 26.3691V33.5371H121.729V27.0625C121.729 26.5026 121.654 26.0729 121.504 25.7734C121.23 25.2266 120.71 24.9531 119.941 24.9531C118.997 24.9531 118.35 25.3535 117.998 26.1543C117.816 26.5775 117.725 27.1178 117.725 27.7754V33.5371H114.951V22.9121H117.637V24.4648C117.995 23.918 118.333 23.5241 118.652 23.2832C119.225 22.8535 119.951 22.6387 120.83 22.6387ZM132.949 19.1426H136.006V27.9902C136.006 28.9798 136.123 29.7025 136.357 30.1582C136.722 30.9655 137.516 31.3691 138.74 31.3691C139.958 31.3691 140.749 30.9655 141.113 30.1582C141.348 29.7025 141.465 28.9798 141.465 27.9902V19.1426H144.521V27.9902C144.521 29.5202 144.284 30.7116 143.809 31.5645C142.923 33.127 141.234 33.9082 138.74 33.9082C136.247 33.9082 134.554 33.127 133.662 31.5645C133.187 30.7116 132.949 29.5202 132.949 27.9902V19.1426ZM154.512 28.2148C154.512 27.3945 154.323 26.6686 153.945 26.0371C153.574 25.4056 152.969 25.0898 152.129 25.0898C151.12 25.0898 150.426 25.5684 150.049 26.5254C149.854 27.0332 149.756 27.6777 149.756 28.459C149.756 29.696 150.085 30.5651 150.742 31.0664C151.133 31.3594 151.595 31.5059 152.129 31.5059C152.904 31.5059 153.493 31.2064 153.896 30.6074C154.307 30.0085 154.512 29.2109 154.512 28.2148ZM152.93 22.6582C154.173 22.6582 155.225 23.1172 156.084 24.0352C156.95 24.9531 157.383 26.3008 157.383 28.0781C157.383 29.9531 156.96 31.3822 156.113 32.3652C155.273 33.3483 154.189 33.8398 152.861 33.8398C152.015 33.8398 151.312 33.6283 150.752 33.2051C150.446 32.9707 150.146 32.6289 149.854 32.1797V37.7266H147.1V22.8926H149.766V24.4648C150.065 24.0026 150.384 23.638 150.723 23.3711C151.341 22.8958 152.077 22.6582 152.93 22.6582ZM169.99 22.8926H172.812L174.434 30.5586L176.094 22.8926H178.994L175.908 33.5371H173.047L171.377 25.7832L169.688 33.5371H166.797L163.809 22.8926H166.797L168.457 30.5293L169.99 22.8926ZM183.398 21.623H180.576V19.0547H183.398V21.623ZM180.576 22.8926H183.398V33.5371H180.576V22.8926ZM185.01 24.9727V22.9902H186.494V20.0215H189.248V22.9902H190.977V24.9727H189.248V30.5977C189.248 31.0339 189.303 31.3073 189.414 31.418C189.525 31.5221 189.863 31.5742 190.43 31.5742C190.514 31.5742 190.602 31.5742 190.693 31.5742C190.791 31.5677 190.885 31.5612 190.977 31.5547V33.6348L189.658 33.6836C188.343 33.7292 187.445 33.5013 186.963 33C186.65 32.681 186.494 32.1895 186.494 31.5254V24.9727H185.01ZM198.633 22.6191C199.29 22.6191 199.886 22.7331 200.42 22.9609C200.96 23.1888 201.403 23.5371 201.748 24.0059C202.041 24.403 202.22 24.8132 202.285 25.2363C202.35 25.653 202.383 26.3366 202.383 27.2871V33.5371H199.541V27.0625C199.541 26.4896 199.443 26.0273 199.248 25.6758C198.994 25.181 198.512 24.9336 197.803 24.9336C197.067 24.9336 196.507 25.181 196.123 25.6758C195.745 26.1641 195.557 26.8639 195.557 27.7754V33.5371H192.783V19.1914H195.557V24.2793C195.96 23.6608 196.426 23.2311 196.953 22.9902C197.487 22.7428 198.047 22.6191 198.633 22.6191ZM210.781 19.1621H220.986V21.6914H213.77V25.002H220.088V27.502H213.77V33.5371H210.781V19.1621ZM228.652 28.3613C228.477 28.472 228.298 28.5632 228.115 28.6348C227.939 28.6999 227.695 28.7617 227.383 28.8203L226.758 28.9375C226.172 29.0417 225.752 29.1686 225.498 29.3184C225.068 29.5723 224.854 29.9661 224.854 30.5C224.854 30.9753 224.984 31.3203 225.244 31.5352C225.511 31.7435 225.833 31.8477 226.211 31.8477C226.81 31.8477 227.36 31.6719 227.861 31.3203C228.369 30.9688 228.633 30.3275 228.652 29.3965V28.3613ZM226.963 27.0625C227.477 26.9974 227.845 26.916 228.066 26.8184C228.464 26.6491 228.662 26.3854 228.662 26.0273C228.662 25.5911 228.509 25.2917 228.203 25.1289C227.904 24.9596 227.461 24.875 226.875 24.875C226.217 24.875 225.752 25.0378 225.479 25.3633C225.283 25.6042 225.153 25.9297 225.088 26.3398H222.402C222.461 25.4089 222.721 24.6439 223.184 24.0449C223.919 23.1074 225.182 22.6387 226.973 22.6387C228.138 22.6387 229.173 22.8698 230.078 23.332C230.983 23.7943 231.436 24.6667 231.436 25.9492V30.832C231.436 31.1706 231.442 31.5807 231.455 32.0625C231.475 32.4271 231.53 32.6745 231.621 32.8047C231.712 32.9349 231.849 33.0423 232.031 33.127V33.5371H229.004C228.919 33.3223 228.861 33.1204 228.828 32.9316C228.796 32.7428 228.77 32.528 228.75 32.2871C228.366 32.7038 227.923 33.0586 227.422 33.3516C226.823 33.6966 226.146 33.8691 225.391 33.8691C224.427 33.8691 223.63 33.5957 222.998 33.0488C222.373 32.4954 222.061 31.7142 222.061 30.7051C222.061 29.3965 222.565 28.4492 223.574 27.8633C224.128 27.5443 224.941 27.3164 226.016 27.1797L226.963 27.0625ZM240.273 26.7109C240.221 26.3138 240.088 25.9557 239.873 25.6367C239.561 25.207 239.076 24.9922 238.418 24.9922C237.48 24.9922 236.839 25.4577 236.494 26.3887C236.312 26.8835 236.221 27.541 236.221 28.3613C236.221 29.1426 236.312 29.7708 236.494 30.2461C236.826 31.1315 237.451 31.5742 238.369 31.5742C239.02 31.5742 239.482 31.3984 239.756 31.0469C240.029 30.6953 240.195 30.2396 240.254 29.6797H243.096C243.031 30.526 242.725 31.3268 242.178 32.082C241.305 33.2995 240.013 33.9082 238.301 33.9082C236.589 33.9082 235.329 33.4004 234.521 32.3848C233.714 31.3691 233.311 30.0508 233.311 28.4297C233.311 26.6003 233.757 25.1777 234.648 24.1621C235.54 23.1465 236.771 22.6387 238.34 22.6387C239.674 22.6387 240.765 22.9382 241.611 23.5371C242.464 24.1361 242.969 25.194 243.125 26.7109H240.273ZM249.248 24.9043C248.604 24.9043 248.102 25.1061 247.744 25.5098C247.393 25.9134 247.171 26.4603 247.08 27.1504H251.406C251.361 26.4147 251.136 25.8581 250.732 25.4805C250.335 25.0964 249.84 24.9043 249.248 24.9043ZM249.248 22.6094C250.133 22.6094 250.931 22.7754 251.641 23.1074C252.35 23.4395 252.936 23.9635 253.398 24.6797C253.815 25.3112 254.085 26.0436 254.209 26.877C254.281 27.3652 254.31 28.0684 254.297 28.9863H247.012C247.051 30.054 247.386 30.8027 248.018 31.2324C248.402 31.4993 248.864 31.6328 249.404 31.6328C249.977 31.6328 250.443 31.4701 250.801 31.1445C250.996 30.9688 251.169 30.7246 251.318 30.4121H254.16C254.089 31.0436 253.76 31.6849 253.174 32.3359C252.262 33.3711 250.986 33.8887 249.346 33.8887C247.992 33.8887 246.797 33.4525 245.762 32.5801C244.727 31.7077 244.209 30.2884 244.209 28.3223C244.209 26.4798 244.674 25.0671 245.605 24.084C246.543 23.1009 247.757 22.6094 249.248 22.6094ZM261.934 22.6582C263.333 22.6582 264.427 23.1628 265.215 24.1719C266.009 25.181 266.406 26.4831 266.406 28.0781C266.406 29.7318 266.016 31.1022 265.234 32.1895C264.453 33.2767 263.363 33.8203 261.963 33.8203C261.084 33.8203 260.378 33.6445 259.844 33.293C259.525 33.0846 259.18 32.7201 258.809 32.1992V33.5371H256.084V19.1621H258.857V24.2793C259.209 23.7845 259.596 23.4069 260.02 23.1465C260.521 22.821 261.159 22.6582 261.934 22.6582ZM261.221 31.5254C261.937 31.5254 262.493 31.2357 262.891 30.6562C263.288 30.0768 263.486 29.3151 263.486 28.3711C263.486 27.6159 263.389 26.9909 263.193 26.4961C262.822 25.5586 262.139 25.0898 261.143 25.0898C260.133 25.0898 259.44 25.5488 259.062 26.4668C258.867 26.9551 258.77 27.5866 258.77 28.3613C258.77 29.2728 258.971 30.028 259.375 30.627C259.779 31.2259 260.394 31.5254 261.221 31.5254ZM273.184 31.5742C273.997 31.5742 274.622 31.2845 275.059 30.7051C275.495 30.1257 275.713 29.3021 275.713 28.2344C275.713 27.1667 275.495 26.3464 275.059 25.7734C274.622 25.194 273.997 24.9043 273.184 24.9043C272.37 24.9043 271.742 25.194 271.299 25.7734C270.863 26.3464 270.645 27.1667 270.645 28.2344C270.645 29.3021 270.863 30.1257 271.299 30.7051C271.742 31.2845 272.37 31.5742 273.184 31.5742ZM278.633 28.2344C278.633 29.7969 278.184 31.1348 277.285 32.248C276.387 33.3548 275.023 33.9082 273.193 33.9082C271.364 33.9082 270 33.3548 269.102 32.248C268.203 31.1348 267.754 29.7969 267.754 28.2344C267.754 26.6979 268.203 25.3665 269.102 24.2402C270 23.1139 271.364 22.5508 273.193 22.5508C275.023 22.5508 276.387 23.1139 277.285 24.2402C278.184 25.3665 278.633 26.6979 278.633 28.2344ZM285.41 31.5742C286.224 31.5742 286.849 31.2845 287.285 30.7051C287.721 30.1257 287.939 29.3021 287.939 28.2344C287.939 27.1667 287.721 26.3464 287.285 25.7734C286.849 25.194 286.224 24.9043 285.41 24.9043C284.596 24.9043 283.968 25.194 283.525 25.7734C283.089 26.3464 282.871 27.1667 282.871 28.2344C282.871 29.3021 283.089 30.1257 283.525 30.7051C283.968 31.2845 284.596 31.5742 285.41 31.5742ZM290.859 28.2344C290.859 29.7969 290.41 31.1348 289.512 32.248C288.613 33.3548 287.249 33.9082 285.42 33.9082C283.59 33.9082 282.227 33.3548 281.328 32.248C280.43 31.1348 279.98 29.7969 279.98 28.2344C279.98 26.6979 280.43 25.3665 281.328 24.2402C282.227 23.1139 283.59 22.5508 285.42 22.5508C287.249 22.5508 288.613 23.1139 289.512 24.2402C290.41 25.3665 290.859 26.6979 290.859 28.2344ZM292.832 19.1914H295.566V26.9453L299.033 22.9414H302.48L298.76 27.0137L302.627 33.5371H299.268L296.719 28.9863L295.566 30.1875V33.5371H292.832V19.1914Z" fill="white"/>
</svg>
