<svg width="352" height="62" viewBox="0 0 352 62" fill="none" xmlns="http://www.w3.org/2000/svg">
<g filter="url(#filter0_dd_1_461)">
<rect x="3.84595" y="3" width="345" height="54" rx="10" fill="white"/>
<rect width="24" height="24" transform="translate(18.8459 18)" fill="white"/>
<path fill-rule="evenodd" clip-rule="evenodd" d="M41.8859 30.2614C41.8859 29.4459 41.8128 28.6618 41.6769 27.9091H30.8459V32.3575H37.035C36.7684 33.795 35.9582 35.013 34.7403 35.8284V38.7139H38.4569C40.6314 36.7118 41.8859 33.7637 41.8859 30.2614Z" fill="#4285F4"/>
<path fill-rule="evenodd" clip-rule="evenodd" d="M30.8459 41.4998C33.9509 41.4998 36.5541 40.47 38.4568 38.7137L34.7402 35.8282C33.7105 36.5182 32.3932 36.9259 30.8459 36.9259C27.8507 36.9259 25.3155 34.903 24.4111 32.1848H20.5691V35.1644C22.4614 38.9228 26.3505 41.4998 30.8459 41.4998Z" fill="#34A853"/>
<path fill-rule="evenodd" clip-rule="evenodd" d="M24.4112 32.1851C24.1812 31.4951 24.0505 30.758 24.0505 30.0001C24.0505 29.2421 24.1812 28.5051 24.4112 27.8151V24.8355H20.5691C19.7903 26.388 19.3459 28.1444 19.3459 30.0001C19.3459 31.8557 19.7903 33.6121 20.5691 35.1646L24.4112 32.1851Z" fill="#FBBC05"/>
<path fill-rule="evenodd" clip-rule="evenodd" d="M30.8459 23.0739C32.5343 23.0739 34.0502 23.6541 35.242 24.7936L38.5405 21.4952C36.5489 19.6395 33.9457 18.5 30.8459 18.5C26.3505 18.5 22.4614 21.077 20.5691 24.8355L24.4111 27.815C25.3155 25.0968 27.8507 23.0739 30.8459 23.0739Z" fill="#EA4335"/>
<path d="M70.1409 31.3711C69.9976 32.888 69.4377 34.0729 68.4612 34.9258C67.4846 35.7721 66.1858 36.1953 64.5647 36.1953C63.4319 36.1953 62.4325 35.9284 61.5667 35.3945C60.7073 34.8542 60.0432 34.0892 59.5745 33.0996C59.1057 32.11 58.8616 30.9609 58.842 29.6523V28.3242C58.842 26.9831 59.0797 25.8014 59.5549 24.7793C60.0302 23.7572 60.7105 22.9694 61.5959 22.416C62.4879 21.8626 63.5165 21.5859 64.6819 21.5859C66.2509 21.5859 67.5139 22.0124 68.4709 22.8652C69.428 23.7181 69.9846 24.9225 70.1409 26.4785H67.6799C67.5627 25.4564 67.2633 24.7207 66.7815 24.2715C66.3062 23.8158 65.6064 23.5879 64.6819 23.5879C63.6077 23.5879 62.7808 23.9818 62.2014 24.7695C61.6285 25.5508 61.3355 26.6999 61.3225 28.2168V29.4766C61.3225 31.013 61.5959 32.1849 62.1428 32.9922C62.6962 33.7995 63.5035 34.2031 64.5647 34.2031C65.5347 34.2031 66.2639 33.985 66.7522 33.5488C67.2405 33.1126 67.5497 32.3867 67.6799 31.3711H70.1409ZM71.6838 30.6191C71.6838 29.584 71.8889 28.653 72.2991 27.8262C72.7092 26.9928 73.2854 26.3548 74.0276 25.9121C74.7698 25.4629 75.6226 25.2383 76.5862 25.2383C78.012 25.2383 79.1676 25.6973 80.053 26.6152C80.9449 27.5332 81.4267 28.7507 81.4983 30.2676L81.5081 30.8242C81.5081 31.8659 81.3062 32.7969 80.9026 33.6172C80.5055 34.4375 79.9325 35.0723 79.1838 35.5215C78.4417 35.9707 77.5823 36.1953 76.6057 36.1953C75.1148 36.1953 73.9202 35.7005 73.0217 34.7109C72.1298 33.7148 71.6838 32.39 71.6838 30.7363V30.6191ZM74.0569 30.8242C74.0569 31.9115 74.2815 32.7643 74.7307 33.3828C75.1799 33.9948 75.8049 34.3008 76.6057 34.3008C77.4065 34.3008 78.0282 33.9883 78.4709 33.3633C78.9202 32.7383 79.1448 31.8236 79.1448 30.6191C79.1448 29.5514 78.9137 28.7051 78.4514 28.0801C77.9957 27.4551 77.3739 27.1426 76.5862 27.1426C75.8114 27.1426 75.1962 27.4518 74.7405 28.0703C74.2847 28.6823 74.0569 29.6003 74.0569 30.8242ZM85.717 25.4336L85.7854 26.6543C86.5667 25.7103 87.592 25.2383 88.8616 25.2383C91.0621 25.2383 92.1819 26.498 92.2209 29.0176V36H89.8479V29.1543C89.8479 28.4837 89.7014 27.9889 89.4084 27.6699C89.122 27.3444 88.65 27.1816 87.9924 27.1816C87.0354 27.1816 86.3225 27.6146 85.8538 28.4805V36H83.4807V25.4336H85.717ZM97.6213 22.8652V25.4336H99.4866V27.1914H97.6213V33.0898C97.6213 33.4935 97.6995 33.7865 97.8557 33.9688C98.0185 34.1445 98.3049 34.2324 98.7151 34.2324C98.9885 34.2324 99.2652 34.1999 99.5452 34.1348V35.9707C99.0048 36.1204 98.484 36.1953 97.9827 36.1953C96.1597 36.1953 95.2483 35.1895 95.2483 33.1777V27.1914H93.51V25.4336H95.2483V22.8652H97.6213ZM103.832 36H101.459V25.4336H103.832V36ZM101.313 22.6895C101.313 22.3249 101.427 22.0221 101.655 21.7812C101.889 21.5404 102.221 21.4199 102.651 21.4199C103.08 21.4199 103.412 21.5404 103.647 21.7812C103.881 22.0221 103.998 22.3249 103.998 22.6895C103.998 23.0475 103.881 23.347 103.647 23.5879C103.412 23.8223 103.08 23.9395 102.651 23.9395C102.221 23.9395 101.889 23.8223 101.655 23.5879C101.427 23.347 101.313 23.0475 101.313 22.6895ZM108.627 25.4336L108.696 26.6543C109.477 25.7103 110.502 25.2383 111.772 25.2383C113.972 25.2383 115.092 26.498 115.131 29.0176V36H112.758V29.1543C112.758 28.4837 112.612 27.9889 112.319 27.6699C112.032 27.3444 111.56 27.1816 110.903 27.1816C109.946 27.1816 109.233 27.6146 108.764 28.4805V36H106.391V25.4336H108.627ZM123.959 34.9648C123.263 35.7852 122.273 36.1953 120.99 36.1953C119.845 36.1953 118.976 35.86 118.383 35.1895C117.797 34.5189 117.504 33.5488 117.504 32.2793V25.4336H119.877V32.25C119.877 33.5911 120.434 34.2617 121.547 34.2617C122.699 34.2617 123.477 33.8483 123.881 33.0215V25.4336H126.254V36H124.018L123.959 34.9648ZM133.324 36.1953C131.821 36.1953 130.6 35.7233 129.662 34.7793C128.731 33.8288 128.266 32.5658 128.266 30.9902V30.6973C128.266 29.6426 128.468 28.7018 128.871 27.875C129.281 27.0417 129.854 26.3939 130.59 25.9316C131.326 25.4694 132.146 25.2383 133.051 25.2383C134.49 25.2383 135.6 25.6973 136.381 26.6152C137.169 27.5332 137.563 28.832 137.563 30.5117V31.4688H130.658C130.73 32.3411 131.02 33.0312 131.528 33.5391C132.042 34.0469 132.686 34.3008 133.461 34.3008C134.548 34.3008 135.434 33.8613 136.117 32.9824L137.397 34.2031C136.974 34.8346 136.407 35.3262 135.698 35.6777C134.994 36.0228 134.203 36.1953 133.324 36.1953ZM133.041 27.1426C132.39 27.1426 131.863 27.3704 131.459 27.8262C131.062 28.2819 130.808 28.9167 130.698 29.7305H135.219V29.5547C135.167 28.7604 134.955 28.1615 134.584 27.7578C134.213 27.3477 133.699 27.1426 133.041 27.1426ZM153.676 32.7285L155.356 25.4336H157.67L154.789 36H152.836L150.571 28.7441L148.344 36H146.391L143.5 25.4336H145.815L147.524 32.6504L149.692 25.4336H151.479L153.676 32.7285ZM161.781 36H159.408V25.4336H161.781V36ZM159.262 22.6895C159.262 22.3249 159.376 22.0221 159.604 21.7812C159.838 21.5404 160.17 21.4199 160.6 21.4199C161.03 21.4199 161.362 21.5404 161.596 21.7812C161.83 22.0221 161.948 22.3249 161.948 22.6895C161.948 23.0475 161.83 23.347 161.596 23.5879C161.362 23.8223 161.03 23.9395 160.6 23.9395C160.17 23.9395 159.838 23.8223 159.604 23.5879C159.376 23.347 159.262 23.0475 159.262 22.6895ZM167.348 22.8652V25.4336H169.213V27.1914H167.348V33.0898C167.348 33.4935 167.426 33.7865 167.582 33.9688C167.745 34.1445 168.031 34.2324 168.442 34.2324C168.715 34.2324 168.992 34.1999 169.272 34.1348V35.9707C168.731 36.1204 168.211 36.1953 167.709 36.1953C165.886 36.1953 164.975 35.1895 164.975 33.1777V27.1914H163.237V25.4336H164.975V22.8652H167.348ZM173.373 26.5859C174.148 25.6875 175.128 25.2383 176.313 25.2383C178.565 25.2383 179.708 26.5241 179.74 29.0957V36H177.367V29.1836C177.367 28.4544 177.208 27.9401 176.889 27.6406C176.576 27.3346 176.114 27.1816 175.502 27.1816C174.552 27.1816 173.842 27.6048 173.373 28.4512V36H171V21H173.373V26.5859ZM198.256 34.1543C197.742 34.8249 197.029 35.3327 196.117 35.6777C195.206 36.0228 194.171 36.1953 193.012 36.1953C191.821 36.1953 190.766 35.9251 189.848 35.3848C188.93 34.8444 188.22 34.0729 187.719 33.0703C187.224 32.0612 186.967 30.8861 186.948 29.5449V28.4316C186.948 26.2832 187.462 24.6068 188.49 23.4023C189.519 22.1914 190.955 21.5859 192.797 21.5859C194.379 21.5859 195.636 21.9766 196.567 22.7578C197.498 23.5391 198.058 24.6654 198.246 26.1367H195.824C195.551 24.4245 194.558 23.5684 192.846 23.5684C191.739 23.5684 190.896 23.9688 190.317 24.7695C189.744 25.5638 189.448 26.7324 189.428 28.2754V29.3691C189.428 30.9056 189.75 32.1003 190.395 32.9531C191.046 33.7995 191.948 34.2227 193.1 34.2227C194.363 34.2227 195.261 33.9362 195.795 33.3633V30.5801H192.865V28.7051H198.256V34.1543ZM200.297 30.6191C200.297 29.584 200.502 28.653 200.912 27.8262C201.323 26.9928 201.899 26.3548 202.641 25.9121C203.383 25.4629 204.236 25.2383 205.199 25.2383C206.625 25.2383 207.781 25.6973 208.666 26.6152C209.558 27.5332 210.04 28.7507 210.112 30.2676L210.121 30.8242C210.121 31.8659 209.92 32.7969 209.516 33.6172C209.119 34.4375 208.546 35.0723 207.797 35.5215C207.055 35.9707 206.196 36.1953 205.219 36.1953C203.728 36.1953 202.533 35.7005 201.635 34.7109C200.743 33.7148 200.297 32.39 200.297 30.7363V30.6191ZM202.67 30.8242C202.67 31.9115 202.895 32.7643 203.344 33.3828C203.793 33.9948 204.418 34.3008 205.219 34.3008C206.02 34.3008 206.642 33.9883 207.084 33.3633C207.533 32.7383 207.758 31.8236 207.758 30.6191C207.758 29.5514 207.527 28.7051 207.065 28.0801C206.609 27.4551 205.987 27.1426 205.199 27.1426C204.425 27.1426 203.809 27.4518 203.354 28.0703C202.898 28.6823 202.67 29.6003 202.67 30.8242ZM211.684 30.6191C211.684 29.584 211.889 28.653 212.299 27.8262C212.709 26.9928 213.285 26.3548 214.028 25.9121C214.77 25.4629 215.623 25.2383 216.586 25.2383C218.012 25.2383 219.168 25.6973 220.053 26.6152C220.945 27.5332 221.427 28.7507 221.498 30.2676L221.508 30.8242C221.508 31.8659 221.306 32.7969 220.903 33.6172C220.505 34.4375 219.933 35.0723 219.184 35.5215C218.442 35.9707 217.582 36.1953 216.606 36.1953C215.115 36.1953 213.92 35.7005 213.022 34.7109C212.13 33.7148 211.684 32.39 211.684 30.7363V30.6191ZM214.057 30.8242C214.057 31.9115 214.281 32.7643 214.731 33.3828C215.18 33.9948 215.805 34.3008 216.606 34.3008C217.406 34.3008 218.028 33.9883 218.471 33.3633C218.92 32.7383 219.145 31.8236 219.145 30.6191C219.145 29.5514 218.914 28.7051 218.451 28.0801C217.996 27.4551 217.374 27.1426 216.586 27.1426C215.811 27.1426 215.196 27.4518 214.74 28.0703C214.285 28.6823 214.057 29.6003 214.057 30.8242ZM223.1 30.6387C223.1 28.998 223.484 27.6895 224.252 26.7129C225.027 25.7298 226.052 25.2383 227.328 25.2383C228.533 25.2383 229.48 25.6582 230.17 26.498L230.278 25.4336H232.416V35.6777C232.416 37.0645 231.983 38.1582 231.117 38.959C230.258 39.7598 229.096 40.1602 227.631 40.1602C226.856 40.1602 226.098 39.9974 225.356 39.6719C224.62 39.3529 224.06 38.9329 223.676 38.4121L224.799 36.9863C225.528 37.8522 226.427 38.2852 227.494 38.2852C228.282 38.2852 228.904 38.0703 229.36 37.6406C229.815 37.2174 230.043 36.5924 230.043 35.7656V35.0527C229.36 35.8145 228.448 36.1953 227.309 36.1953C226.072 36.1953 225.059 35.7038 224.272 34.7207C223.49 33.7376 223.1 32.377 223.1 30.6387ZM225.463 30.8438C225.463 31.9049 225.678 32.7415 226.108 33.3535C226.544 33.959 227.146 34.2617 227.914 34.2617C228.871 34.2617 229.581 33.8516 230.043 33.0312V28.3828C229.594 27.582 228.891 27.1816 227.934 27.1816C227.153 27.1816 226.544 27.4909 226.108 28.1094C225.678 28.7279 225.463 29.6393 225.463 30.8438ZM237.387 36H235.014V21H237.387V36ZM244.633 36.1953C243.129 36.1953 241.908 35.7233 240.971 34.7793C240.04 33.8288 239.574 32.5658 239.574 30.9902V30.6973C239.574 29.6426 239.776 28.7018 240.18 27.875C240.59 27.0417 241.163 26.3939 241.899 25.9316C242.634 25.4694 243.455 25.2383 244.36 25.2383C245.798 25.2383 246.908 25.6973 247.69 26.6152C248.477 27.5332 248.871 28.832 248.871 30.5117V31.4688H241.967C242.039 32.3411 242.328 33.0312 242.836 33.5391C243.351 34.0469 243.995 34.3008 244.77 34.3008C245.857 34.3008 246.742 33.8613 247.426 32.9824L248.705 34.2031C248.282 34.8346 247.716 35.3262 247.006 35.6777C246.303 36.0228 245.512 36.1953 244.633 36.1953ZM244.35 27.1426C243.699 27.1426 243.171 27.3704 242.768 27.8262C242.371 28.2819 242.117 28.9167 242.006 29.7305H246.528V29.5547C246.476 28.7604 246.264 28.1615 245.893 27.7578C245.522 27.3477 245.007 27.1426 244.35 27.1426Z" fill="black" fill-opacity="0.54"/>
</g>
<defs>
<filter id="filter0_dd_1_461" x="0.845947" y="0" width="351" height="62" filterUnits="userSpaceOnUse" color-interpolation-filters="sRGB">
<feFlood flood-opacity="0" result="BackgroundImageFix"/>
<feColorMatrix in="SourceAlpha" type="matrix" values="0 0 0 0 0 0 0 0 0 0 0 0 0 0 0 0 0 0 127 0" result="hardAlpha"/>
<feOffset dy="2"/>
<feGaussianBlur stdDeviation="1.5"/>
<feColorMatrix type="matrix" values="0 0 0 0 0 0 0 0 0 0 0 0 0 0 0 0 0 0 0.168 0"/>
<feBlend mode="normal" in2="BackgroundImageFix" result="effect1_dropShadow_1_461"/>
<feColorMatrix in="SourceAlpha" type="matrix" values="0 0 0 0 0 0 0 0 0 0 0 0 0 0 0 0 0 0 127 0" result="hardAlpha"/>
<feOffset/>
<feGaussianBlur stdDeviation="1.5"/>
<feColorMatrix type="matrix" values="0 0 0 0 0 0 0 0 0 0 0 0 0 0 0 0 0 0 0.084 0"/>
<feBlend mode="normal" in2="effect1_dropShadow_1_461" result="effect2_dropShadow_1_461"/>
<feBlend mode="normal" in="SourceGraphic" in2="effect2_dropShadow_1_461" result="shape"/>
</filter>
</defs>
</svg>
