<svg width="352" height="63" viewBox="0 0 352 63" fill="none" xmlns="http://www.w3.org/2000/svg">
<g filter="url(#filter0_dd_1_782)">
<rect x="3.5" y="3.53711" width="345" height="54" rx="10" fill="white"/>
<rect x="51" y="3.53711" width="250" height="54" rx="10" fill="white"/>
<rect width="24" height="24" transform="translate(66 18.5371)" fill="white"/>
<path fill-rule="evenodd" clip-rule="evenodd" d="M89.04 30.7984C89.04 29.983 88.9668 29.1989 88.8309 28.4462H78V32.8946H84.1891C83.9225 34.3321 83.1123 35.55 81.8943 36.3655V39.2509H85.6109C87.7855 37.2489 89.04 34.3007 89.04 30.7984Z" fill="#4285F4"/>
<path fill-rule="evenodd" clip-rule="evenodd" d="M77.9999 42.0369C81.1049 42.0369 83.7081 41.0072 85.6108 39.2508L81.8942 36.3653C80.8644 37.0553 79.5472 37.4631 77.9999 37.4631C75.0047 37.4631 72.4694 35.4401 71.5651 32.7219H67.7231V35.7015C69.6154 39.4599 73.5044 42.0369 77.9999 42.0369Z" fill="#34A853"/>
<path fill-rule="evenodd" clip-rule="evenodd" d="M71.5652 32.7222C71.3352 32.0322 71.2045 31.2952 71.2045 30.5372C71.2045 29.7793 71.3352 29.0422 71.5652 28.3522V25.3727H67.7232C66.9443 26.9252 66.5 28.6815 66.5 30.5372C66.5 32.3929 66.9443 34.1493 67.7232 35.7018L71.5652 32.7222Z" fill="#FBBC05"/>
<path fill-rule="evenodd" clip-rule="evenodd" d="M77.9999 23.611C79.6883 23.611 81.2042 24.1912 82.396 25.3307L85.6944 22.0323C83.7029 20.1767 81.0997 19.0371 77.9999 19.0371C73.5044 19.0371 69.6154 21.6142 67.7231 25.3726L71.5651 28.3521C72.4694 25.6339 75.0047 23.611 77.9999 23.611Z" fill="#EA4335"/>
<path d="M113.877 32.875C113.877 32.25 113.656 31.7682 113.213 31.4297C112.777 31.0911 111.986 30.7493 110.84 30.4043C109.694 30.0592 108.783 29.6751 108.105 29.252C106.81 28.4382 106.162 27.377 106.162 26.0684C106.162 24.9225 106.628 23.9785 107.559 23.2363C108.496 22.4941 109.71 22.123 111.201 22.123C112.191 22.123 113.073 22.3053 113.848 22.6699C114.622 23.0345 115.231 23.5553 115.674 24.2324C116.117 24.903 116.338 25.6484 116.338 26.4688H113.877C113.877 25.7266 113.643 25.1471 113.174 24.7305C112.712 24.3073 112.048 24.0957 111.182 24.0957C110.374 24.0957 109.746 24.2682 109.297 24.6133C108.854 24.9583 108.633 25.4401 108.633 26.0586C108.633 26.5794 108.874 27.0156 109.355 27.3672C109.837 27.7122 110.632 28.0508 111.738 28.3828C112.845 28.7083 113.734 29.0827 114.404 29.5059C115.075 29.9225 115.566 30.4043 115.879 30.9512C116.191 31.4915 116.348 32.1263 116.348 32.8555C116.348 34.0404 115.892 34.9844 114.98 35.6875C114.076 36.3841 112.845 36.7324 111.289 36.7324C110.26 36.7324 109.313 36.5436 108.447 36.166C107.588 35.7819 106.917 35.2546 106.436 34.584C105.96 33.9134 105.723 33.1322 105.723 32.2402H108.193C108.193 33.0475 108.46 33.6725 108.994 34.1152C109.528 34.5579 110.293 34.7793 111.289 34.7793C112.148 34.7793 112.793 34.6068 113.223 34.2617C113.659 33.9102 113.877 33.4479 113.877 32.875ZM120.811 36.5371H118.438V25.9707H120.811V36.5371ZM118.291 23.2266C118.291 22.862 118.405 22.5592 118.633 22.3184C118.867 22.0775 119.199 21.957 119.629 21.957C120.059 21.957 120.391 22.0775 120.625 22.3184C120.859 22.5592 120.977 22.862 120.977 23.2266C120.977 23.5846 120.859 23.8841 120.625 24.125C120.391 24.3594 120.059 24.4766 119.629 24.4766C119.199 24.4766 118.867 24.3594 118.633 24.125C118.405 23.8841 118.291 23.5846 118.291 23.2266ZM122.988 31.1758C122.988 29.5352 123.372 28.2266 124.141 27.25C124.915 26.2669 125.941 25.7754 127.217 25.7754C128.421 25.7754 129.368 26.1953 130.059 27.0352L130.166 25.9707H132.305V36.2148C132.305 37.6016 131.872 38.6953 131.006 39.4961C130.146 40.2969 128.984 40.6973 127.52 40.6973C126.745 40.6973 125.986 40.5345 125.244 40.209C124.508 39.89 123.949 39.4701 123.564 38.9492L124.688 37.5234C125.417 38.3893 126.315 38.8223 127.383 38.8223C128.171 38.8223 128.792 38.6074 129.248 38.1777C129.704 37.7546 129.932 37.1296 129.932 36.3027V35.5898C129.248 36.3516 128.337 36.7324 127.197 36.7324C125.96 36.7324 124.948 36.2409 124.16 35.2578C123.379 34.2747 122.988 32.9141 122.988 31.1758ZM125.352 31.3809C125.352 32.4421 125.566 33.2786 125.996 33.8906C126.432 34.4961 127.035 34.7988 127.803 34.7988C128.76 34.7988 129.469 34.3887 129.932 33.5684V28.9199C129.482 28.1191 128.779 27.7188 127.822 27.7188C127.041 27.7188 126.432 28.028 125.996 28.6465C125.566 29.265 125.352 30.1764 125.352 31.3809ZM136.953 25.9707L137.021 27.1914C137.803 26.2474 138.828 25.7754 140.098 25.7754C142.298 25.7754 143.418 27.0352 143.457 29.5547V36.5371H141.084V29.6914C141.084 29.0208 140.938 28.526 140.645 28.207C140.358 27.8815 139.886 27.7188 139.229 27.7188C138.271 27.7188 137.559 28.1517 137.09 29.0176V36.5371H134.717V25.9707H136.953ZM161.494 22.3184V31.8203C161.494 33.3307 161.009 34.5286 160.039 35.4141C159.076 36.293 157.79 36.7324 156.182 36.7324C154.554 36.7324 153.262 36.2995 152.305 35.4336C151.348 34.5612 150.869 33.3535 150.869 31.8105V22.3184H153.33V31.8301C153.33 32.7806 153.571 33.5065 154.053 34.0078C154.535 34.5091 155.244 34.7598 156.182 34.7598C158.083 34.7598 159.033 33.7572 159.033 31.752V22.3184H161.494ZM173.164 31.3613C173.164 32.9954 172.793 34.3008 172.051 35.2773C171.309 36.2474 170.312 36.7324 169.062 36.7324C167.904 36.7324 166.976 36.3516 166.279 35.5898V40.5996H163.906V25.9707H166.094L166.191 27.0449C166.888 26.1986 167.835 25.7754 169.033 25.7754C170.322 25.7754 171.331 26.2572 172.061 27.2207C172.796 28.1777 173.164 29.5091 173.164 31.2148V31.3613ZM170.801 31.1562C170.801 30.1016 170.589 29.265 170.166 28.6465C169.749 28.028 169.15 27.7188 168.369 27.7188C167.399 27.7188 166.702 28.1191 166.279 28.9199V33.6074C166.709 34.4277 167.412 34.8379 168.389 34.8379C169.144 34.8379 169.733 34.5352 170.156 33.9297C170.586 33.3177 170.801 32.3932 170.801 31.1562ZM189.443 33.2656L191.123 25.9707H193.438L190.557 36.5371H188.604L186.338 29.2812L184.111 36.5371H182.158L179.268 25.9707H181.582L183.291 33.1875L185.459 25.9707H187.246L189.443 33.2656ZM197.549 36.5371H195.176V25.9707H197.549V36.5371ZM195.029 23.2266C195.029 22.862 195.143 22.5592 195.371 22.3184C195.605 22.0775 195.938 21.957 196.367 21.957C196.797 21.957 197.129 22.0775 197.363 22.3184C197.598 22.5592 197.715 22.862 197.715 23.2266C197.715 23.5846 197.598 23.8841 197.363 24.125C197.129 24.3594 196.797 24.4766 196.367 24.4766C195.938 24.4766 195.605 24.3594 195.371 24.125C195.143 23.8841 195.029 23.5846 195.029 23.2266ZM203.115 23.4023V25.9707H204.98V27.7285H203.115V33.627C203.115 34.0306 203.193 34.3236 203.35 34.5059C203.512 34.6816 203.799 34.7695 204.209 34.7695C204.482 34.7695 204.759 34.737 205.039 34.6719V36.5078C204.499 36.6576 203.978 36.7324 203.477 36.7324C201.654 36.7324 200.742 35.7266 200.742 33.7148V27.7285H199.004V25.9707H200.742V23.4023H203.115ZM209.141 27.123C209.915 26.2246 210.895 25.7754 212.08 25.7754C214.333 25.7754 215.475 27.0612 215.508 29.6328V36.5371H213.135V29.7207C213.135 28.9915 212.975 28.4772 212.656 28.1777C212.344 27.8717 211.882 27.7188 211.27 27.7188C210.319 27.7188 209.609 28.1419 209.141 28.9883V36.5371H206.768V21.5371H209.141V27.123ZM234.023 34.6914C233.509 35.362 232.796 35.8698 231.885 36.2148C230.973 36.5599 229.938 36.7324 228.779 36.7324C227.588 36.7324 226.533 36.4622 225.615 35.9219C224.697 35.3815 223.988 34.61 223.486 33.6074C222.992 32.5983 222.734 31.4232 222.715 30.082V28.9688C222.715 26.8203 223.229 25.1439 224.258 23.9395C225.286 22.7285 226.722 22.123 228.564 22.123C230.146 22.123 231.403 22.5137 232.334 23.2949C233.265 24.0762 233.825 25.2025 234.014 26.6738H231.592C231.318 24.9616 230.326 24.1055 228.613 24.1055C227.507 24.1055 226.663 24.5059 226.084 25.3066C225.511 26.1009 225.215 27.2695 225.195 28.8125V29.9062C225.195 31.4427 225.518 32.6374 226.162 33.4902C226.813 34.3366 227.715 34.7598 228.867 34.7598C230.13 34.7598 231.029 34.4733 231.562 33.9004V31.1172H228.633V29.2422H234.023V34.6914ZM236.064 31.1562C236.064 30.1211 236.27 29.1901 236.68 28.3633C237.09 27.5299 237.666 26.8919 238.408 26.4492C239.15 26 240.003 25.7754 240.967 25.7754C242.393 25.7754 243.548 26.2344 244.434 27.1523C245.326 28.0703 245.807 29.2878 245.879 30.8047L245.889 31.3613C245.889 32.403 245.687 33.334 245.283 34.1543C244.886 34.9746 244.313 35.6094 243.564 36.0586C242.822 36.5078 241.963 36.7324 240.986 36.7324C239.495 36.7324 238.301 36.2376 237.402 35.248C236.51 34.252 236.064 32.9271 236.064 31.2734V31.1562ZM238.438 31.3613C238.438 32.4486 238.662 33.3014 239.111 33.9199C239.561 34.5319 240.186 34.8379 240.986 34.8379C241.787 34.8379 242.409 34.5254 242.852 33.9004C243.301 33.2754 243.525 32.3607 243.525 31.1562C243.525 30.0885 243.294 29.2422 242.832 28.6172C242.376 27.9922 241.755 27.6797 240.967 27.6797C240.192 27.6797 239.577 27.9889 239.121 28.6074C238.665 29.2194 238.438 30.1374 238.438 31.3613ZM247.451 31.1562C247.451 30.1211 247.656 29.1901 248.066 28.3633C248.477 27.5299 249.053 26.8919 249.795 26.4492C250.537 26 251.39 25.7754 252.354 25.7754C253.779 25.7754 254.935 26.2344 255.82 27.1523C256.712 28.0703 257.194 29.2878 257.266 30.8047L257.275 31.3613C257.275 32.403 257.074 33.334 256.67 34.1543C256.273 34.9746 255.7 35.6094 254.951 36.0586C254.209 36.5078 253.35 36.7324 252.373 36.7324C250.882 36.7324 249.688 36.2376 248.789 35.248C247.897 34.252 247.451 32.9271 247.451 31.2734V31.1562ZM249.824 31.3613C249.824 32.4486 250.049 33.3014 250.498 33.9199C250.947 34.5319 251.572 34.8379 252.373 34.8379C253.174 34.8379 253.796 34.5254 254.238 33.9004C254.688 33.2754 254.912 32.3607 254.912 31.1562C254.912 30.0885 254.681 29.2422 254.219 28.6172C253.763 27.9922 253.141 27.6797 252.354 27.6797C251.579 27.6797 250.964 27.9889 250.508 28.6074C250.052 29.2194 249.824 30.1374 249.824 31.3613ZM258.867 31.1758C258.867 29.5352 259.251 28.2266 260.02 27.25C260.794 26.2669 261.82 25.7754 263.096 25.7754C264.3 25.7754 265.247 26.1953 265.938 27.0352L266.045 25.9707H268.184V36.2148C268.184 37.6016 267.751 38.6953 266.885 39.4961C266.025 40.2969 264.863 40.6973 263.398 40.6973C262.624 40.6973 261.865 40.5345 261.123 40.209C260.387 39.89 259.827 39.4701 259.443 38.9492L260.566 37.5234C261.296 38.3893 262.194 38.8223 263.262 38.8223C264.049 38.8223 264.671 38.6074 265.127 38.1777C265.583 37.7546 265.811 37.1296 265.811 36.3027V35.5898C265.127 36.3516 264.215 36.7324 263.076 36.7324C261.839 36.7324 260.827 36.2409 260.039 35.2578C259.258 34.2747 258.867 32.9141 258.867 31.1758ZM261.23 31.3809C261.23 32.4421 261.445 33.2786 261.875 33.8906C262.311 34.4961 262.913 34.7988 263.682 34.7988C264.639 34.7988 265.348 34.3887 265.811 33.5684V28.9199C265.361 28.1191 264.658 27.7188 263.701 27.7188C262.92 27.7188 262.311 28.028 261.875 28.6465C261.445 29.265 261.23 30.1764 261.23 31.3809ZM273.154 36.5371H270.781V21.5371H273.154V36.5371ZM280.4 36.7324C278.896 36.7324 277.676 36.2604 276.738 35.3164C275.807 34.3659 275.342 33.1029 275.342 31.5273V31.2344C275.342 30.1797 275.544 29.2389 275.947 28.4121C276.357 27.5788 276.93 26.931 277.666 26.4688C278.402 26.0065 279.222 25.7754 280.127 25.7754C281.566 25.7754 282.676 26.2344 283.457 27.1523C284.245 28.0703 284.639 29.3691 284.639 31.0488V32.0059H277.734C277.806 32.8783 278.096 33.5684 278.604 34.0762C279.118 34.584 279.762 34.8379 280.537 34.8379C281.624 34.8379 282.51 34.3984 283.193 33.5195L284.473 34.7402C284.049 35.3717 283.483 35.8633 282.773 36.2148C282.07 36.5599 281.279 36.7324 280.4 36.7324ZM280.117 27.6797C279.466 27.6797 278.939 27.9076 278.535 28.3633C278.138 28.819 277.884 29.4538 277.773 30.2676H282.295V30.0918C282.243 29.2975 282.031 28.6986 281.66 28.2949C281.289 27.8848 280.775 27.6797 280.117 27.6797Z" fill="black" fill-opacity="0.54"/>
</g>
<defs>
<filter id="filter0_dd_1_782" x="0.5" y="0.537109" width="351" height="62" filterUnits="userSpaceOnUse" color-interpolation-filters="sRGB">
<feFlood flood-opacity="0" result="BackgroundImageFix"/>
<feColorMatrix in="SourceAlpha" type="matrix" values="0 0 0 0 0 0 0 0 0 0 0 0 0 0 0 0 0 0 127 0" result="hardAlpha"/>
<feOffset dy="2"/>
<feGaussianBlur stdDeviation="1.5"/>
<feColorMatrix type="matrix" values="0 0 0 0 0 0 0 0 0 0 0 0 0 0 0 0 0 0 0.168 0"/>
<feBlend mode="normal" in2="BackgroundImageFix" result="effect1_dropShadow_1_782"/>
<feColorMatrix in="SourceAlpha" type="matrix" values="0 0 0 0 0 0 0 0 0 0 0 0 0 0 0 0 0 0 127 0" result="hardAlpha"/>
<feOffset/>
<feGaussianBlur stdDeviation="1.5"/>
<feColorMatrix type="matrix" values="0 0 0 0 0 0 0 0 0 0 0 0 0 0 0 0 0 0 0.084 0"/>
<feBlend mode="normal" in2="effect1_dropShadow_1_782" result="effect2_dropShadow_1_782"/>
<feBlend mode="normal" in="SourceGraphic" in2="effect2_dropShadow_1_782" result="shape"/>
</filter>
</defs>
</svg>
